<?xml version="1.0" encoding="UTF-8" standalone="no"?>
<svg width="32px" height="32px" viewBox="0 0 32 32" version="1.1" xmlns="http://www.w3.org/2000/svg" xmlns:xlink="http://www.w3.org/1999/xlink">
    <!-- Generator: Sketch 3.8.2 (29753) - http://www.bohemiancoding.com/sketch -->
    <title>x copy</title>
    <desc>Created with Sketch.</desc>
    <defs></defs>
    <g id="Page-5" stroke="none" stroke-width="1" fill="none" fill-rule="evenodd">
        <g id="x-copy" fill="#000000">
            <g id="Group" transform="translate(2.000000, 6.000000)">
                <path d="M23.0006891,0 L14.4347489,0 L14.4347489,0.00311844532 L0,0.00311844532 L0,5.75103686 C0,11.9311718 4.84313894,16.9406424 10.8180722,16.9406424 C15.2101818,16.9406424 18.9830304,14.2275949 20.6780084,10.3388936 L23.0018951,10.3388936 C25.7575157,10.3388936 28,8.02001767 28,5.16913496 C27.999397,2.31825225 25.7569127,0 23.0006891,0 L23.0006891,0 Z M23.6972967,7.61836191 L22.1705502,7.61836191 C22.269439,7.00964139 22.3339579,6.38907077 22.3339579,5.75103686 L22.3339579,2.7205317 L23.6985027,2.7205317 C25.0039553,2.7205317 26.0664069,3.81884814 26.0664069,5.16913496 C26.0664069,6.51942178 25.0027494,7.61836191 23.6972967,7.61836191 Z M0,18 L22,18 L22,22 L0,22 L0,18 Z" id="Combined-Shape"></path>
            </g>
        </g>
    </g>
</svg>