<?xml version="1.0" encoding="UTF-8" standalone="no"?>
<svg width="320px" height="320px" viewBox="0 0 320 320" version="1.1" xmlns="http://www.w3.org/2000/svg" xmlns:xlink="http://www.w3.org/1999/xlink" xmlns:sketch="http://www.bohemiancoding.com/sketch/ns">
    <defs></defs>
    <g id="Page-5" stroke="none" stroke-width="1" fill="none" fill-rule="evenodd" sketch:type="MSPage">
        <g id="runtime" sketch:type="MSArtboardGroup" fill="#A86182">
            <path d="M43,159.58 C43,223.862183 95.2978168,276.16 159.58,276.16 C223.862183,276.16 276.16,223.862183 276.16,159.58 C276.16,95.2978168 223.862183,43 159.58,43 C95.2978168,43 43,95.2978168 43,159.58 Z M159.58,251.353753 C108.976409,251.353753 67.8038469,210.185991 67.8038469,159.58 C67.8038469,108.974009 108.976409,67.8062466 159.58,67.8062466 C210.183591,67.8062466 251.356153,108.974009 251.356153,159.58 C251.356153,210.185991 210.183591,251.353753 159.58,251.353753 Z M167.945539,155.980371 L167.945539,92.9868547 L148.747515,92.9868547 L148.747515,165.579382 L158.346527,175.178394 L220.336946,175.178394 L220.336946,155.980371 L167.945539,155.980371 Z" id="Shape" sketch:type="MSShapeGroup"></path>
        </g>
    </g>
</svg>