<?xml version="1.0" encoding="UTF-8" standalone="no"?>
<svg width="320px" height="320px" viewBox="0 0 320 320" version="1.1" xmlns="http://www.w3.org/2000/svg" xmlns:xlink="http://www.w3.org/1999/xlink" xmlns:sketch="http://www.bohemiancoding.com/sketch/ns">
    <!-- Generator: Sketch 3.4.2 (15855) - http://www.bohemiancoding.com/sketch -->
    <title>social-reddit</title>
    <desc>Created with Sketch.</desc>
    <defs></defs>
    <g id="Page-5" stroke="none" stroke-width="1" fill="none" fill-rule="evenodd" sketch:type="MSPage">
        <g id="social-reddit" sketch:type="MSArtboardGroup" fill="#000000">
            <path d="M221.922416,163.861806 C222.644035,165.706033 222.97169,167.610696 222.97169,169.503011 C222.97169,173.312335 221.655222,177.012487 219.446156,180.032914 C217.261794,183.017599 214.166631,185.334256 210.525378,186.353845 L210.531879,186.353845 C210.501324,186.366192 210.470769,186.366192 210.455816,186.377889 C210.440864,186.377889 210.41616,186.390235 210.404458,186.390235 C208.699225,186.972486 206.951086,187.245416 205.216599,187.245416 C201.150825,187.245416 197.157864,185.780691 193.965835,183.284031 C190.79851,180.797768 188.400913,177.224983 187.648739,172.987418 L187.642238,172.987418 C187.642238,172.975071 187.642238,172.960125 187.636387,172.94258 C187.636387,172.930233 187.636387,172.917886 187.624034,172.900341 L187.636387,172.900341 C187.399747,171.80797 187.278177,170.7169 187.278177,169.637526 C187.278177,165.967916 188.528334,162.443869 190.591776,159.531965 C192.648717,156.638256 195.549497,154.339795 198.94436,153.156448 C198.956712,153.156448 198.969064,153.149949 198.969064,153.149949 C198.986617,153.149949 198.986617,153.132404 199.002219,153.132404 C200.922637,152.422786 202.949673,152.067327 204.955255,152.067327 C208.60821,152.067327 212.206556,153.174643 215.240609,155.200174 C218.238256,157.192564 220.671609,160.113566 221.891211,163.740937 C221.903563,163.764981 221.903563,163.786425 221.915265,163.80787 C221.915265,163.831913 221.927617,163.84491 221.939319,163.862456 L221.922416,163.862456 L221.922416,163.861806 Z M210.744464,208.886823 C209.312927,207.958861 207.655803,207.398054 205.902462,207.398054 C204.488478,207.398054 203.019885,207.801601 201.712518,208.668479 L201.712518,208.668479 C189.357872,216.038891 174.827315,220.078257 160.400125,220.078257 C149.575832,220.078257 138.8172,217.794741 129.070135,213.008717 L129.020077,212.984673 L128.971319,212.966478 C127.501426,212.366032 125.826748,211.089109 123.999946,209.87327 C123.071592,209.272174 122.102281,208.674977 121.026353,208.23504 C119.964727,207.783406 118.785432,207.467587 117.524873,207.467587 C116.48145,207.467587 115.384719,207.700877 114.302289,208.192151 C114.24638,208.213596 114.193071,208.23439 114.138462,208.255835 L114.144313,208.255835 C112.443631,208.905018 111.114811,210.094214 110.26057,211.501103 C109.368622,212.950232 108.930449,214.6372 108.930449,216.31702 C108.930449,217.833731 109.288659,219.349793 110.029782,220.72679 C110.735148,222.031006 111.820178,223.171464 113.240013,223.935669 C127.171171,233.328363 143.575338,237.583473 160.042566,237.568527 C174.889725,237.568527 189.826599,234.132857 203.125202,227.878859 L203.194764,227.836619 L203.261725,227.800229 C205.015065,226.762444 207.345701,225.831883 209.542415,224.47633 C210.628745,223.784907 211.690371,222.984312 212.600522,221.943929 C213.510672,220.910043 214.242044,219.63637 214.654862,218.126157 L214.654862,218.119658 C214.827791,217.452929 214.909704,216.803745 214.909704,216.154562 C214.909704,214.920528 214.606104,213.749528 214.102921,212.697447 C213.365698,211.113153 212.158448,209.815435 210.744464,208.886823 L210.744464,208.886823 Z M112.933162,186.298609 C112.957216,186.298609 112.989072,186.307706 113.016376,186.322653 C114.794421,186.971836 116.627074,187.292854 118.441525,187.292854 C122.968225,187.292854 127.367503,185.439529 130.698005,182.419103 C134.023306,179.389578 136.300633,175.103926 136.300633,170.218478 C136.300633,170.09111 136.300633,169.963743 136.294782,169.812332 C136.307134,169.593988 136.312985,169.354199 136.312985,169.108562 C136.312985,164.262103 134.066213,159.958905 130.772767,156.916385 C127.46697,153.871265 123.078093,152.009492 118.53449,152.009492 C117.320739,152.009492 116.084234,152.151805 114.875684,152.433833 C114.857481,152.433833 114.843829,152.439681 114.825626,152.439681 L114.807423,152.439681 C108.792627,153.698409 103.513102,158.160166 101.564729,164.297844 L101.564729,164.297844 L101.564729,164.304342 C101.564729,164.316689 101.558878,164.328386 101.558878,164.328386 C100.999136,166.008856 100.738442,167.743262 100.738442,169.459472 C100.738442,173.220059 101.982098,176.88447 104.126154,179.898398 C106.251356,182.861639 109.258104,185.191292 112.868802,186.279114 C112.894806,186.280413 112.907158,186.286912 112.933162,186.298609 L112.933162,186.298609 Z M301.567108,142.438093 L301.567108,142.462787 C301.610015,143.07363 301.621717,143.683174 301.621717,144.288819 C301.621717,151.07763 299.443207,157.605858 295.809105,163.14439 C292.416843,168.327462 287.738668,172.663801 282.349925,175.606248 C282.695782,178.308255 282.896016,181.031708 282.896016,183.746063 C282.889515,198.364068 277.847279,212.733188 269.066925,224.249538 L269.066925,224.255387 L269.048722,224.255387 C252.816183,245.840258 227.888454,258.569198 202.717585,264.989553 L202.711084,264.989553 L202.693531,265.004499 C189.270757,268.262115 175.429315,269.926339 161.591772,269.926339 C140.964506,269.926339 120.353492,266.207991 101.120056,258.499015 L101.114205,258.48082 L101.096002,258.48082 C81.1558988,250.264975 62.1565017,237.205919 50.5052717,218.071571 C44.2369334,207.862685 40.7959134,195.885603 40.7959134,183.851985 C40.7959134,181.129183 40.9798939,178.401831 41.3439542,175.705672 C36.096285,172.752179 31.5513821,168.564001 28.176023,163.562232 C24.5731262,158.190708 22.2886478,151.89772 22,145.245374 L22,145.219381 L22,145.195337 L22,145.142051 C22.005851,135.825387 26.0547216,126.999998 32.3464638,120.492564 C38.6375559,113.987081 47.2313294,109.73522 56.4492063,109.73522 L56.8314696,109.73522 C57.7981797,109.669586 58.7733413,109.631896 59.7491529,109.631896 C64.3792198,109.631896 69.0196885,110.381154 73.4267685,112.070072 L73.4508225,112.088267 L73.4755266,112.096065 C77.2376997,113.679709 80.9758189,115.59022 84.3076208,118.236342 C85.3874497,117.670337 86.5647947,117.0335 87.8858135,116.530529 C108.080759,104.576841 131.554197,99.9656221 154.429536,98.6354128 C154.628469,87.3081641 156.021,75.4493516 161.547565,65.0715098 C166.150328,56.4488684 174.139501,49.7360878 183.651226,47.4096837 L183.690883,47.3901887 L183.742242,47.3843402 C187.365292,46.6838196 191.018247,46.3608523 194.647148,46.3608523 C204.313599,46.3608523 213.864981,48.6489163 222.803312,52.2204015 C226.759867,46.2516803 232.409303,41.5930235 239.036501,38.9800428 L239.100211,38.9436522 L239.163922,38.9196083 C243.053516,37.7083186 247.162197,37 251.28583,37 C255.63635,37 260.021327,37.7947464 264.129357,39.6292266 L264.129357,39.6142804 C264.135208,39.6292266 264.141709,39.6292266 264.141709,39.6292266 C264.172264,39.6396239 264.196318,39.6578192 264.217122,39.6578192 C270.106447,41.9250885 275.091473,46.1152152 278.626108,51.3223315 C282.163994,56.5521919 284.245639,62.8165874 284.245639,69.2570877 C284.245639,70.4443336 284.178678,71.633529 284.039555,72.8240241 L284.027203,72.8480679 C284.027203,72.8662633 284.027203,72.8922566 284.020702,72.9104519 C283.329637,81.2341699 279.111739,88.5369994 273.1405,93.7460651 C267.133505,98.9759256 259.353666,102.134766 251.368393,102.134766 C250.087681,102.134766 248.795267,102.063285 247.508704,101.891729 C239.589092,101.286734 232.204519,97.4559649 226.77937,91.7575745 C221.336019,86.0682817 217.828688,78.4665288 217.828688,70.2610805 C217.828688,69.8640322 217.865094,69.4572364 217.876796,69.0634373 C210.442814,65.7544849 202.548557,63.0095879 194.703057,63.0160863 C193.567969,63.0160863 192.433531,63.0784703 191.298443,63.1934908 L191.286091,63.1934908 C185.412368,63.7594959 179.950813,67.4602979 177.304875,72.7830846 L177.304875,72.7889331 L177.304875,72.8071284 C173.28786,80.6272254 172.486927,89.768434 172.365357,98.8420598 C194.884437,100.310034 217.536789,105.71145 237.40408,117.127076 L237.434635,117.127076 L237.719382,117.295383 C238.095795,117.518276 238.79336,117.900378 239.424615,118.236992 C240.790491,117.129676 242.23438,115.991167 243.881753,115.009919 C249.904351,111.000446 257.040583,109.006756 264.180065,109.006756 C267.34739,109.006756 270.517965,109.410303 273.594275,110.198551 L273.606627,110.198551 L273.734048,110.236241 C273.779556,110.24274 273.812711,110.257686 273.849767,110.257686 L273.849767,110.263534 C281.119921,112.112311 287.697061,116.285542 292.648931,121.9131 C297.597551,127.549757 300.925452,134.68103 301.57491,142.422497 L301.57491,142.438743 L301.567108,142.438743 L301.567108,142.438093 Z M235.235971,68.7723119 C235.235971,69.0770838 235.242472,69.3896538 235.273027,69.7080722 L235.273027,69.7262675 L235.273027,69.7626582 C235.418651,73.6733565 237.265607,77.3130743 240.072772,80.0014357 C242.89424,82.6917466 246.63886,84.3566201 250.436789,84.3715663 L250.488798,84.3715663 L250.540156,84.3715663 C250.813201,84.3930108 251.092748,84.3930108 251.359292,84.3930108 C255.194277,84.3988593 258.999357,82.7476323 261.857231,80.0683685 C264.720955,77.3754583 266.608868,73.7129964 266.760343,69.7691565 L266.766194,69.7509612 L266.766194,69.7269174 C266.790898,69.4253946 266.80325,69.1401177 266.80325,68.8320966 C266.80325,64.7725864 264.903635,60.9028276 261.930043,58.0370616 C258.968802,55.173895 254.981692,53.3998494 251.050491,53.4102467 C249.782131,53.4102467 248.525472,53.5831024 247.294168,53.9652046 L247.251911,53.9684537 L247.215505,53.9833999 C243.975369,54.8249343 240.938066,56.8218728 238.756304,59.4738436 C236.564791,62.1134675 235.235971,65.3769316 235.235971,68.7723119 L235.235971,68.7723119 Z M69.0099369,129.106108 C65.9999383,127.705067 62.8872227,126.704323 59.8109131,126.71732 C59.2947276,126.71732 58.7726911,126.747862 58.2571558,126.803748 L58.1856439,126.803748 L58.1141321,126.812845 C53.6966503,126.934364 49.2382118,128.859821 45.8914575,131.945881 C42.5421027,135.020893 40.3271858,139.173329 40.1568576,143.751407 L40.1568576,143.793646 L40.1490563,143.831336 C40.1191513,144.201741 40.1067993,144.570197 40.1067993,144.925006 C40.1067993,147.748533 40.9733928,150.477834 42.4426362,152.962148 C43.5302663,154.812224 44.9566026,156.497892 46.5695198,157.966516 C51.7320249,146.66721 59.797911,137.077616 69.0099369,129.106108 L69.0099369,129.106108 Z M265.182532,184.379001 C265.182532,174.30658 261.547129,164.189322 255.661054,156.043658 C243.92466,139.720489 225.720345,129.074266 206.781408,123.138687 L206.648136,123.091899 C203.012734,121.977434 199.342226,120.990337 195.639862,120.145553 C184.571779,117.626798 173.224149,116.37262 161.888222,116.37262 C146.6666,116.37262 131.445629,118.624293 116.871515,123.117242 C97.9371285,129.123654 79.6717029,139.694496 67.9619633,156.070301 L67.9619633,156.082648 C62.0271302,164.262103 58.5516545,174.413153 58.5516545,184.521314 C58.5516545,188.242911 59.0171316,191.963858 60.0013947,195.58473 L60.0137467,195.591229 C62.1447997,203.719347 66.3126401,210.973439 71.7085339,217.29112 C77.1011771,223.623748 83.7173231,229.025815 90.6760757,233.432336 C92.217481,234.387591 93.7647373,235.297358 95.3483997,236.185681 C115.562848,247.464192 138.839304,252.408126 161.948682,252.408126 C165.857129,252.408126 169.78898,252.269061 173.672073,251.989633 C196.943978,250.066775 220.312099,243.200634 239.202928,229.170728 L239.209429,229.155781 C245.222925,224.712869 250.793048,219.335497 255.198828,213.218614 C259.622811,207.098481 262.862947,200.256384 264.301636,192.825537 L264.301636,192.804093 L264.307487,192.797594 C264.897134,190.022805 265.182532,187.205776 265.182532,184.379001 L265.182532,184.379001 Z M283.550674,144.294018 C283.544823,141.849344 282.986381,139.415717 281.760928,137.145849 L281.730373,137.117256 L281.718021,137.080865 C280.079099,133.708229 277.505973,131.160882 274.405609,129.424526 C271.304596,127.676474 267.675695,126.788802 264.035091,126.788802 C260.743596,126.788802 257.469004,127.524413 254.563022,128.984589 C263.804953,137.006135 271.912446,146.646415 277.151664,157.99056 C278.838694,156.522586 280.277382,154.729695 281.35396,152.737305 C282.756242,150.123025 283.550674,147.189026 283.550674,144.294018 L283.550674,144.294018 Z" id="reddit" sketch:type="MSShapeGroup"></path>
        </g>
    </g>
</svg>