<?xml version="1.0" encoding="UTF-8" standalone="no"?>
<svg width="320px" height="320px" viewBox="0 0 320 320" version="1.1" xmlns="http://www.w3.org/2000/svg" xmlns:xlink="http://www.w3.org/1999/xlink" xmlns:sketch="http://www.bohemiancoding.com/sketch/ns">
    <!-- Generator: Sketch 3.4.2 (15855) - http://www.bohemiancoding.com/sketch -->
    <title>social-google</title>
    <desc>Created with Sketch.</desc>
    <defs></defs>
    <g id="Page-5" stroke="none" stroke-width="1" fill="none" fill-rule="evenodd" sketch:type="MSPage">
        <g id="social-google" sketch:type="MSArtboardGroup" fill="#010002">
            <g id="Shape-+-Shape" sketch:type="MSLayerGroup" transform="translate(29.000000, 49.000000)">
                <path d="M145.065635,0 L75.5392967,0 C44.3801925,0 15.0480747,23.433709 15.0480747,50.5747091 C15.0480747,78.3093942 36.2914931,100.704543 68.014998,100.704543 L74.4596189,100.506994 C72.4000786,104.412353 70.9216621,108.812363 70.9216621,113.393849 C70.9216621,121.106051 75.107112,127.351929 80.3889627,132.44414 L68.3306444,132.575839 C29.7141336,132.559247 0,156.98174 0,182.260799 C0,207.194016 32.5873517,222.766713 71.1876621,222.766713 C115.202562,222.766713 139.518306,197.981787 139.518306,173.065161 C139.518306,153.092455 133.57224,141.111942 115.202039,128.225087 C108.923603,123.808485 96.8987308,113.080673 96.8987308,106.768946 C96.8987308,99.3699185 99.0246405,95.7279587 110.252558,87.0269725 C121.745953,78.1118449 129.884821,65.5708311 129.884821,51.0029919 C129.884821,33.6502773 122.095045,16.7258455 107.462432,11.1560943 L129.502806,11.1560943 L145.065635,0 L145.065635,0 Z M120.799536,168.780777 C121.347737,171.088112 121.64666,173.444186 121.64666,175.899813 C121.64666,196.053995 108.575033,211.774983 71.0549234,211.774983 C44.3639921,211.774983 25.0970216,195.015435 25.0970216,174.877845 C25.0970216,155.151946 48.9978271,138.738757 75.6887583,139.002675 C81.9170255,139.085117 87.7303536,140.057308 92.9954813,141.754885 C107.478633,151.724646 117.876149,157.377357 120.799536,168.780777 L120.799536,168.780777 Z M78.063945,93.6684678 C60.1426523,93.141151 43.1181297,73.7782031 40.028558,50.443528 C36.9389862,27.0922609 48.9476582,9.22882148 66.8527505,9.75613826 C84.7578428,10.283455 101.798566,29.0205707 104.888138,52.3552458 C107.99391,75.7059945 95.9685147,94.1957846 78.063945,93.6684678 L78.063945,93.6684678 Z" id="Shape" sketch:type="MSShapeGroup"></path>
                <path d="M215.920927,48.8942433 L215.920927,7.10542736e-15 L199.311866,7.10542736e-15 L199.311866,48.8942433 L149.483639,48.8942433 L149.483639,65.3732817 L199.311866,65.3732817 L199.311866,115.354824 L215.920927,115.354824 L215.920927,65.3732817 L265.749155,65.3732817 L265.749155,48.8942433 L215.920927,48.8942433 Z" id="Shape" sketch:type="MSShapeGroup"></path>
            </g>
        </g>
    </g>
</svg>