<svg xmlns="http://www.w3.org/2000/svg" width="32" height="32" viewBox="0 0 32 32">
  <path fill="#000000" fill-rule="evenodd" d="M19.7983939,17.1811941 C19.0109165,22.3543137 15.1540655,25.3200106 10.1607127,25.3200106 C4.54934207,25.3200106 0,20.7706685 0,15.159298 C0,9.54934207 4.54934207,5 10.1607127,5 C12.8750999,5 15.253498,5.96865892 16.9846752,7.65011984 L14.0686946,10.5661005 C13.0811395,9.57116873 11.7297057,9.04086182 10.1607127,9.04086182 C6.85761201,9.04086182 4.17970361,11.857511 4.17970361,15.1591969 C4.17970361,18.4638133 6.85761201,21.1987135 10.1607127,21.1987135 C12.9291613,21.1987135 15.0256318,19.8605172 15.6304121,17.1811941 L10.1607127,17.1811941 L10.1607127,13.100822 L19.7736369,13.100822 C19.8890352,13.7582489 19.9474417,14.4462939 19.9474417,15.1591969 C19.9473407,15.8663402 19.8962097,16.539834 19.7983939,17.1811941 L19.7983939,17.1811941 Z M28.4397288,15.9160564 L28.4397288,19.4748119 L25.9108682,19.4748119 L25.9108682,15.9160564 L22.350597,15.9160564 L22.350597,13.38568 L25.9108682,13.38568 L25.9108682,9.82540886 L28.4397288,9.82540886 L28.4397288,13.38568 L32,13.38568 L32,15.9160564 L28.4397288,15.9160564 Z"/>
</svg>
