<?xml version="1.0" encoding="UTF-8" standalone="no"?>
<svg width="320px" height="320px" viewBox="0 0 320 320" version="1.1" xmlns="http://www.w3.org/2000/svg" xmlns:xlink="http://www.w3.org/1999/xlink" xmlns:sketch="http://www.bohemiancoding.com/sketch/ns">
    <!-- Generator: Sketch 3.4.2 (15855) - http://www.bohemiancoding.com/sketch -->
    <title>social-pinterest</title>
    <desc>Created with Sketch.</desc>
    <defs></defs>
    <g id="Page-5" stroke="none" stroke-width="1" fill="none" fill-rule="evenodd" sketch:type="MSPage">
        <g id="social-pinterest" sketch:type="MSArtboardGroup" fill="#010002">
            <path d="M256.982557,99.1418686 C249.602164,45.7373576 196.383219,18.5453538 139.60075,24.9123596 C94.7083591,29.9454054 49.9509753,66.2412274 48.0930986,118.142325 C46.9613716,149.82679 55.9468502,173.590278 86.094567,180.278968 C99.1502623,157.174404 81.889343,152.124135 79.1869768,135.386577 C68.1241654,66.9840448 158.094513,20.2676678 205.216467,68.0652135 C237.847094,101.168643 216.346504,202.944619 163.786483,192.355167 C113.438801,182.255184 188.445018,101.236425 148.2651,85.3433559 C115.600583,72.4060002 98.2552146,124.864905 113.742706,150.942405 C104.656111,195.784238 85.0984028,238.007598 93.0193802,294.232815 C118.691303,275.586822 127.355653,239.933256 134.449365,202.725719 C147.35283,210.57947 154.260975,218.703236 170.711296,219.969971 C231.378416,224.681333 265.309112,159.403411 256.982557,99.1418686 L256.982557,99.1418686 Z" id="Shape" sketch:type="MSShapeGroup"></path>
        </g>
    </g>
</svg>