<?xml version="1.0" encoding="UTF-8" standalone="no"?>
<svg width="1041px" height="253px" viewBox="0 0 1041 253" version="1.1" xmlns="http://www.w3.org/2000/svg" xmlns:xlink="http://www.w3.org/1999/xlink">
    <!-- Generator: Sketch 3.7.2 (28276) - http://www.bohemiancoding.com/sketch -->
    <title>Artboard 1 Copy 3</title>
    <defs></defs>
    <g id="Page-1" stroke="none" stroke-width="1" fill="none" fill-rule="evenodd">
        <g id="Artboard-1-Copy-3">
            <circle id="Oval-1-Copy-3" fill="#A7D2CE" cx="542" cy="120" r="61"></circle>
            <path d="M315.232,69.168 L315.232,71.156 L275.614,71.298 L275.614,100.692 L319.634,100.692 L319.634,102.964 L275.614,102.964 L275.614,167.858 L262.266,167.858 L262.408,69.168 L315.232,69.168 Z M339.94,69.736 L339.94,168.142 L325.882,168 L325.882,69.736 L339.94,69.736 Z M347.608,69.594 L360.53,69.594 L360.53,165.586 L400.29,165.586 L400.29,167.574 L347.608,167.574 L347.608,69.594 Z M454.108,151.67 C454.108,151.67 456.521976,147.29171 461.35,138.535 C466.178024,129.77829 471.526637,120.193385 477.396,109.78 C483.076028,99.5559489 488.306309,90.2550419 493.087,81.877 C497.867691,73.4989581 500.352666,69.4046657 500.542,69.594 L500.542,167.716 L500.187,167.716 L499.122,167.716 L496.14,167.716 L492.448,167.716 C491.501329,167.716 490.578338,167.739666 489.679,167.787 C488.779662,167.834334 487.951337,167.858 487.194,167.858 L487.194,97.71 C487.194,97.71 484.87469,102.01729 480.236,110.632 C475.59731,119.24671 470.532694,128.713282 465.042,139.032 C462.296653,144.144026 459.59868,149.137642 456.948,154.013 C454.29732,158.888358 451.930677,163.266647 449.848,167.148 L448.144,167.006 C446.250657,163.219314 444.026013,158.959357 441.47,154.226 C438.913987,149.492643 436.263347,144.664691 433.518,139.742 C433.233999,139.173997 432.926335,138.606003 432.595,138.038 C432.263665,137.469997 431.908669,136.902003 431.53,136.334 C426.133973,126.772619 421.187689,118.205371 416.691,110.632 C412.194311,103.058629 409.946,99.272 409.946,99.272 L409.946,168 L408.1,168 L408.1,69.31 L454.108,151.67 Z" id="FILM-Copy-4" fill="#221F1F"></path>
            <path d="M649.586,69.452 L649.586,71.724 L624.168,71.724 L624.31,168.142 L610.962,168 L610.962,71.724 L584.976,71.724 L584.976,69.452 L649.586,69.452 Z M670.176,69.736 L670.176,105.52 L724.988,105.52 L724.988,69.594 L727.118,69.594 L727.118,168.142 L724.988,168 L724.988,107.224 L670.176,107.224 L670.176,167.716 L657.964,167.716 L657.964,69.736 L670.176,69.736 Z M734.502,69.168 L744.371,69.168 L755.66,69.168 L766.949,69.168 L776.676,69.168 L783.705,69.168 L786.332,69.168 L786.332,71.014 C786.332,71.014 783.989023,71.014 779.303,71.014 C774.616977,71.014 769.481361,71.014 763.896,71.014 C760.771984,71.014 757.719015,71.014 754.737,71.014 C751.754985,71.014 749.175344,71.014 746.998,71.014 L746.998,100.692 L792.154,100.692 L792.012,102.68 L746.998,102.68 L746.998,165.728 L787.894,165.728 L787.894,168.142 L734.644,168 L734.502,69.168 Z M841.57,69.878 C841.948669,69.878 842.327331,69.8543336 842.706,69.807 C843.084669,69.7596664 843.463331,69.736 843.842,69.736 L844.978,69.736 L846.114,69.736 C852.646033,69.736 858.728305,71.0139872 864.361,73.57 C869.993695,76.1260128 874.987312,79.770643 879.342,84.504 C883.412687,89.1426899 886.418324,94.491303 888.359,100.55 C890.299676,106.608697 891.222667,112.856634 891.128,119.294 C891.128,122.228681 890.938669,125.115986 890.56,127.956 C890.181331,130.796014 889.613337,133.588653 888.856,136.334 C887.057324,144.096705 882.821033,150.95997 876.147,156.924 C869.472967,162.88803 862.254705,166.485327 854.492,167.716 L854.492,168.568 C855.912007,169.136003 857.331993,169.822329 858.752,170.627 C860.172007,171.431671 861.591993,172.259996 863.012,173.112 C863.296001,173.301334 863.579999,173.490666 863.864,173.68 C864.148001,173.869334 864.431999,174.058666 864.716,174.248 C868.313351,176.425344 871.957982,178.413324 875.65,180.212 C879.342018,182.010676 883.317979,182.91 887.578,182.91 C888.619339,182.91 889.707994,182.839001 890.844,182.697 C891.980006,182.554999 893.115994,182.342001 894.252,182.058 C893.58933,182.815337 892.761005,183.288666 891.767,183.478 C890.772995,183.667334 889.708006,183.762 888.572,183.762 C888.098664,183.762 887.625336,183.738334 887.152,183.691 C886.678664,183.643666 886.205336,183.62 885.732,183.62 C885.163997,183.62 884.643336,183.596334 884.17,183.549 C883.696664,183.501666 883.223336,183.478 882.75,183.478 L882.253,183.478 C882.110999,183.478 881.945334,183.525333 881.756,183.62 L881.401,183.62 L880.904,183.62 C877.685317,183.241331 874.727013,182.271008 872.029,180.709 C869.330987,179.146992 866.65668,177.466676 864.006,175.668 C861.260653,173.774657 858.444348,172.047008 855.557,170.485 C852.669652,168.922992 849.474684,168.094667 845.972,168 C838.209295,167.905333 830.896368,166.485347 824.033,163.74 C817.169632,160.994653 811.41869,156.592697 806.78,150.534 C803.655984,146.463313 801.360341,141.919358 799.893,136.902 C798.425659,131.884642 797.692,126.772693 797.692,121.566 C797.692,117.400646 798.141662,113.306353 799.041,109.283 C799.940338,105.259647 801.147326,101.496684 802.662,97.994 C806.259351,90.6099631 811.513299,84.2436934 818.424,78.895 C825.334701,73.5463066 833.049957,70.54067 841.57,69.878 L841.57,69.878 Z M875.934,83.794 C872.715317,80.9539858 869.44935,78.4453442 866.136,76.268 C862.82265,74.0906558 859.17802,72.6233371 855.202,71.866 C853.87666,71.6766657 852.527674,71.5346671 851.155,71.44 C849.782326,71.3453329 848.43334,71.298 847.108,71.298 C842.753312,71.298 838.58802,71.9369936 834.612,73.215 C830.63598,74.4930064 827.086016,76.5993187 823.962,79.534 C819.417977,84.267357 816.246676,89.6396366 814.448,95.651 C812.649324,101.662363 811.75,107.886634 811.75,114.324 C811.75,115.365339 811.773666,116.406661 811.821,117.448 C811.868334,118.489339 811.939333,119.530661 812.034,120.572 C812.412669,125.21069 813.075329,129.825644 814.022,134.417 C814.968671,139.008356 816.057327,143.433979 817.288,147.694 C819.749346,152.900693 823.393976,157.326315 828.222,160.971 C833.050024,164.615685 838.493303,166.485333 844.552,166.58 L845.049,166.58 L845.546,166.58 L845.972,166.58 L846.398,166.58 C854.255373,166.58 861.520967,164.521021 868.195,160.403 C874.869033,156.284979 880.004649,150.770701 883.602,143.86 C885.400676,139.978647 886.773329,135.931688 887.72,131.719 C888.666671,127.506312 889.14,123.222688 889.14,118.868 C889.14,112.430634 888.051344,106.159031 885.874,100.053 C883.696656,93.9469695 880.383356,88.527357 875.934,83.794 L875.934,83.794 Z M972.494,70.162 L974.056,70.73 L974.056,80.599 C974.056,83.7703492 974.103333,86.8706515 974.198,89.9 C974.292667,92.9293485 974.34,95.9113187 974.34,98.846 L974.34,107.65 L974.34,108.999 L974.34,110.348 C974.34,115.270691 974.174335,120.264308 973.843,125.329 C973.511665,130.393692 972.920004,135.718639 972.068,141.304 C970.647993,147.078696 967.689689,152.427309 963.193,157.35 C958.696311,162.272691 953.46603,165.39666 947.502,166.722 C945.797991,167.100669 944.070342,167.384666 942.319,167.574 C940.567658,167.763334 938.792676,167.858 936.994,167.858 C932.923313,167.858 928.90002,167.290006 924.924,166.154 C920.94798,165.017994 917.30335,163.314011 913.99,161.042 C907.079299,156.024642 902.890341,149.682038 901.423,142.014 C899.955659,134.345962 899.174667,126.346708 899.08,118.016 C898.890666,114.229314 898.796,110.34802 898.796,106.372 L898.796,94.302 L898.796,93.663 L898.796,93.024 C898.890667,91.2253243 898.938,89.4266757 898.938,87.628 L898.938,82.232 L898.938,80.173 L898.938,78.114 C898.938,76.6939929 898.914334,75.2976735 898.867,73.925 C898.819666,72.5523265 898.748667,71.20334 898.654,69.878 C899.222003,69.9726671 899.83733,70.0673329 900.5,70.162 C901.16267,70.2566671 901.872663,70.3513329 902.63,70.446 C902.914001,70.446 903.245331,70.446 903.624,70.446 C904.002669,70.446 904.333999,70.446 904.618,70.446 C905.564671,70.446 906.463996,70.4223336 907.316,70.375 C908.168004,70.3276664 908.877997,70.2566671 909.446,70.162 C910.10867,70.162 910.629331,70.1383336 911.008,70.091 L911.576,70.02 C911.481333,73.8066856 911.434,78.066643 911.434,82.8 L911.434,97.284 L911.434,112.478 L911.434,125.684 C911.528667,129.470686 911.576,132.499989 911.576,134.772 L911.576,138.18 C911.576,144.238697 913.161651,149.58731 916.333,154.226 C919.504349,158.86469 923.835306,162.17799 929.326,164.166 C931.030009,164.82867 932.804991,165.325665 934.651,165.657 C936.497009,165.988335 938.319324,166.154 940.118,166.154 C943.620684,166.059333 947.02865,165.467672 950.342,164.379 C953.65535,163.290328 956.495322,161.704677 958.862,159.622 C964.068693,155.456646 967.500325,150.321031 969.157,144.215 C970.813675,138.108969 971.783999,131.790033 972.068,125.258 C972.162667,123.648659 972.21,122.039341 972.21,120.43 L972.21,115.602 L972.494,70.162 Z M981.582,69.168 L991.451,69.168 L1002.74,69.168 L1014.029,69.168 L1023.756,69.168 L1030.785,69.168 L1033.412,69.168 L1033.412,71.014 C1033.412,71.014 1031.06902,71.014 1026.383,71.014 C1021.69698,71.014 1016.56136,71.014 1010.976,71.014 C1007.85198,71.014 1004.79901,71.014 1001.817,71.014 C998.834985,71.014 996.255344,71.014 994.078,71.014 L994.078,100.692 L1039.234,100.692 L1039.092,102.68 L994.078,102.68 L994.078,165.728 L1034.974,165.728 L1034.974,168.142 L981.724,168 L981.582,69.168 Z" id="THEQUE-Copy-3" fill="#221F1F"></path>
            <path d="M170.035464,153.193513 C169.746458,153.596138 169.445471,153.974799 169.1325,154.3295 C168.587497,154.94717 167.95167,155.510331 167.225,156.019 C166.49833,156.527669 165.481007,156.999998 164.173,157.436 C161.847655,158.453338 159.467846,158.780335 157.0335,158.417 C154.599154,158.053665 152.164846,157.454171 149.7305,156.6185 C147.296154,155.782829 144.843679,154.929004 142.373,154.057 C139.902321,153.184996 137.540678,152.749 135.288,152.749 C134.343329,152.676333 133.398671,152.64 132.454,152.64 L129.511,152.64 C128.348328,152.64 127.167506,152.912497 125.9685,153.4575 C124.769494,154.002503 123.588672,154.601997 122.426,155.256 C123.007336,154.52933 123.515998,153.80267 123.952,153.076 C125.550675,150.38732 127.003993,147.517015 128.312,144.465 C129.620007,141.412985 130.818995,138.270183 131.909,135.0365 C132.999005,131.802817 134.034495,128.551016 135.0155,125.281 C135.996505,122.010984 136.959329,118.777349 137.904,115.58 C140.738014,113.254655 143.299489,110.983844 145.5885,108.7675 C147.877511,106.551156 149.530662,104.607342 150.548,102.936 C151.565338,101.264658 152.546329,99.5570087 153.491,97.813 C154.435671,96.0689913 155.343996,94.3250087 156.216,92.581 C157.233338,90.6189902 158.05083,88.7478422 158.6685,86.9675 C159.28617,85.1871578 159.595,83.2433439 159.595,81.136 C159.449666,80.7726649 159.304334,80.554667 159.159,80.482 C158.286996,80.0459978 157.23334,79.9188324 155.998,80.1005 C154.76266,80.2821676 153.47284,80.6454973 152.1285,81.1905 C150.78416,81.7355027 149.49434,82.3713297 148.259,83.098 C147.02366,83.8246703 145.970004,84.5149967 145.098,85.169 C143.063323,86.6950076 141.174009,88.8023199 139.43,91.491 C137.685991,94.1796801 136.069174,97.1589837 134.5795,100.429 C133.089826,103.699016 131.691007,107.150649 130.383,110.784 C129.074993,114.417352 127.876005,117.977983 126.786,121.466 C121.263306,125.753355 115.686195,129.931646 110.0545,134.001 C104.422805,138.070354 98.7003624,142.139646 92.887,146.209 C89.9803188,148.17101 87.0191817,150.241989 84.0035,152.422 C80.9878183,154.602011 77.8450164,156.418659 74.575,157.872 C72.031654,159.034672 69.4156801,159.97933 66.727,160.706 C64.0383199,161.43267 61.4405125,161.868666 58.9335,162.014 C56.4264875,162.159334 54.0648444,161.92317 51.8485,161.3055 C49.6321556,160.68783 47.7246747,159.579675 46.126,157.981 C44.5273253,156.382325 43.3283373,154.220514 42.529,151.4955 C41.7296627,148.770486 41.4753319,145.409687 41.766,141.413 C41.9113341,139.160322 42.2564973,136.598848 42.8015,133.7285 C43.3465027,130.858152 44.0186627,128.187679 44.818,125.717 C48.8146867,123.391655 52.4843166,120.93918 55.827,118.3595 C59.1696834,115.77982 62.3306518,113.073014 65.31,110.239 C68.2893482,107.404986 71.1778193,104.407516 73.9755,101.2465 C76.7731807,98.0854842 79.6616518,94.7610174 82.641,91.273 C83.0770022,90.7643308 83.7491621,89.9831719 84.6575,88.9295 C85.5658379,87.8758281 86.5286616,86.6768401 87.546,85.3325 C88.5633384,83.9881599 89.5624951,82.5530076 90.5435,81.027 C91.5245049,79.5009924 92.3056638,77.9750076 92.887,76.449 C93.4683362,74.9229924 93.7771665,73.4878401 93.8135,72.1435 C93.8498335,70.7991599 93.4320044,69.6546714 92.56,68.71 C92.1966649,68.2739978 91.6516703,68.019667 90.925,67.947 C90.1983297,67.874333 89.4535038,67.8924995 88.6905,68.0015 C87.9274962,68.1105005 87.1826703,68.2739989 86.456,68.492 C85.7293297,68.7100011 85.2206681,68.855333 84.93,68.928 C80.7879793,70.3086736 76.9911839,72.3433199 73.5395,75.032 C70.0878161,77.7206801 67.0176801,80.7726496 64.329,84.188 C62.3669902,86.658679 60.2596779,89.5289837 58.007,92.799 C55.7543221,96.0690164 53.5198444,99.5569815 51.3035,103.263 C49.0871556,106.969019 46.9980098,110.856646 45.036,114.926 C43.0739902,118.995354 41.4026736,123.100979 40.022,127.243 C38.2779913,128.260338 36.4976758,129.186829 34.681,130.0225 C32.8643243,130.858171 31.0476758,131.566664 29.231,132.148 C24.434976,133.674008 20.4383493,134.146336 17.241,133.565 C14.0436507,132.983664 11.6093417,131.584844 9.938,129.3685 C8.26665831,127.152156 7.34016758,124.227352 7.1585,120.594 C6.97683243,116.960649 7.50366049,112.891356 8.739,108.386 C9.82900545,104.316646 11.3368237,100.283687 13.2625,96.287 C15.1881763,92.2903134 17.5498193,88.7115158 20.3475,85.5505 C23.1451807,82.3894842 26.3969815,79.8643428 30.103,77.975 C33.8090185,76.0856572 37.9509771,75.2136659 42.529,75.359 C43.4010044,75.359 44.2729956,75.4861654 45.145,75.7405 C46.0170044,75.9948346 46.8344962,76.3581643 47.5975,76.8305 C48.3605038,77.3028357 48.9963308,77.9023297 49.505,78.629 C50.0136692,79.3556703 50.304333,80.1549956 50.377,81.027 C50.449667,82.2623395 50.3406681,83.4613275 50.05,84.624 C49.7593319,85.7866725 49.3233362,86.9129946 48.742,88.003 C48.5966659,88.2936681 48.2333362,88.9113286 47.652,89.856 C47.0706638,90.8006714 46.3440044,91.9269935 45.472,93.235 C44.5999956,94.5430065 43.6371719,95.9236594 42.5835,97.377 C41.5298281,98.8303406 40.4580055,100.192827 39.368,101.4645 C38.2779946,102.736173 37.1880055,103.807996 36.098,104.68 C35.0079946,105.552004 34.0270044,106.024333 33.155,106.097 C32.5736638,106.169667 32.2285005,106.532997 32.1195,107.187 C32.0104995,107.841003 32.3193297,108.168 33.046,108.168 C34.4993406,107.949999 36.1888237,106.950842 38.1145,105.1705 C40.0401763,103.390158 41.8749913,101.410011 43.619,99.23 C45.3630087,97.0499891 46.870827,94.9426768 48.1425,92.908 C49.414173,90.8733232 50.1589989,89.4200044 50.377,88.548 C50.7403352,87.1673264 51.1763308,85.8230065 51.685,84.515 C52.1936692,83.2069935 52.3753341,81.8263406 52.23,80.373 C51.9393319,78.1929891 50.9946747,76.5761719 49.396,75.5225 C47.7973253,74.4688281 45.9261774,73.7966681 43.7825,73.506 C41.6388226,73.2153319 39.4588444,73.2153319 37.2425,73.506 C35.0261556,73.7966681 33.1550076,74.2326638 31.629,74.814 C27.9229815,76.5580087 24.6711807,78.3746572 21.8735,80.264 C19.0758193,82.1533428 16.6051774,84.3151545 14.4615,86.7495 C12.3178226,89.1838455 10.4285082,91.9451512 8.7935,95.0335 C7.15849183,98.1218488 5.65067357,101.700646 4.27,105.77 C3.39799564,108.531347 2.65316976,111.129154 2.0355,113.5635 C1.41783025,115.997846 1.14533297,118.341322 1.218,120.594 C1.29066703,122.846678 1.83566158,125.026656 2.853,127.134 C3.87033842,129.241344 5.54165504,131.312323 7.867,133.347 C9.02967248,134.364338 10.6101567,135.072831 12.6085,135.4725 C14.6068433,135.872169 16.6596561,136.053834 18.767,136.0175 C20.8743439,135.981166 22.9089902,135.781335 24.871,135.418 C26.8330098,135.054665 28.4316605,134.582336 29.667,134.001 C31.3383417,133.201663 32.9733253,132.49317 34.572,131.8755 C36.1706747,131.25783 37.7329924,130.549337 39.259,129.75 C38.0236605,133.964688 37.2061687,138.08848 36.8065,142.1215 C36.4068313,146.15452 36.6429956,149.951316 37.515,153.512 C38.0236692,155.401343 38.8956605,157.072659 40.131,158.526 C41.3663395,159.979341 42.8196583,161.196495 44.491,162.1775 C46.1623417,163.158505 47.9608237,163.848831 49.8865,164.2485 C51.8121763,164.648169 53.7196572,164.739001 55.609,164.521 C58.2250131,164.666334 60.8228204,164.466503 63.4025,163.9215 C65.9821796,163.376497 68.4891545,162.613505 70.9235,161.6325 C73.3578455,160.651495 75.7194886,159.507007 78.0085,158.199 C80.2975114,156.890993 82.4593232,155.546674 84.494,154.166 C85.6566725,153.366663 87.1826572,152.331173 89.072,151.0595 C90.9613428,149.787827 92.8869902,148.461674 94.849,147.081 C96.8110098,145.700326 98.6821578,144.39234 100.4625,143.157 C102.242842,141.92166 103.641662,140.904337 104.659,140.105 C106.766344,138.651659 108.80099,137.198341 110.763,135.745 C112.72501,134.291659 114.723323,132.838341 116.758,131.385 C117.775338,130.65833 119.046992,129.750005 120.573,128.66 C122.099008,127.569995 123.806657,126.298341 125.696,124.845 C124.896663,127.53368 124.115504,130.076988 123.3525,132.475 C122.589496,134.873012 121.881003,137.016657 121.227,138.906 C120.427663,141.086011 119.446672,143.46582 118.284,146.0455 C117.121328,148.62518 115.795174,151.132154 114.3055,153.5665 C112.815826,156.000846 111.199009,158.235323 109.455,160.27 C107.710991,162.304677 105.85801,163.866995 103.896,164.957 C103.459998,165.247668 103.260166,165.719997 103.2965,166.374 C103.332834,167.028003 103.677997,167.209668 104.332,166.919 C106.29401,165.756328 108.237824,164.50284 110.1635,163.1585 C112.089176,161.81416 114.214655,160.960335 116.54,160.597 C119.010679,160.233665 121.572153,160.197332 124.2245,160.488 C126.876847,160.778668 129.18399,161.069332 131.146,161.36 C134.343349,161.796002 137.64965,162.32283 141.065,162.9405 C144.48035,163.55817 147.859317,163.885166 151.202,163.9215 C154.544683,163.957834 157.778318,163.540004 160.903,162.668 C164.027682,161.795996 166.897987,160.052013 169.514,157.436 C170.239283,156.654926 170.868182,155.831028 171.400707,154.96429 C171.826503,155.461697 172.2876,155.9586 172.784,156.455 C173.365336,157.036336 174.164662,157.472332 175.182,157.763 C176.199338,158.053668 177.107663,158.090001 177.907,157.872 C178.851671,157.581332 179.778162,157.308835 180.6865,157.0545 C181.594838,156.800165 182.484996,156.527668 183.357,156.237 C184.011003,156.018999 184.610497,155.728335 185.1555,155.365 C185.700503,155.001665 186.227331,154.602002 186.736,154.166 C187.172002,154.166 187.535332,153.911669 187.826,153.403 C188.334669,155.147009 189.024996,156.38233 189.897,157.109 C190.769004,157.83567 191.804494,158.180834 193.0035,158.1445 C194.202506,158.108166 195.510493,157.708504 196.9275,156.9455 C198.344507,156.182496 199.815992,155.18334 201.342,153.948 C202.650007,153.875333 204.157825,153.275839 205.8655,152.1495 C207.573175,151.023161 209.226325,149.715174 210.825,148.2255 C212.423675,146.735826 213.822494,145.264341 215.0215,143.811 C216.220506,142.357659 217.001665,141.231337 217.365,140.432 C217.583001,139.777997 217.455836,139.323835 216.9835,139.0695 C216.511164,138.815165 216.093335,139.05133 215.73,139.778 C215.439332,140.432003 214.767172,141.37666 213.7135,142.612 C212.659828,143.84734 211.46084,145.100827 210.1165,146.3725 C208.77216,147.644173 207.373341,148.788662 205.92,149.806 C204.466659,150.823338 203.195005,151.477332 202.105,151.768 C201.959666,151.622666 201.741668,151.586333 201.451,151.659 C201.305666,151.586333 201.087668,151.55 200.797,151.55 L200.361,151.768 C200.215666,151.622666 200.143,151.513667 200.143,151.441 C199.852332,150.932331 199.489002,150.823332 199.053,151.114 C198.762332,149.733326 198.798665,148.043843 199.162,146.0455 C199.525335,144.047157 200.088496,142.06701 200.8515,140.105 C201.614504,138.14299 202.486495,136.344508 203.4675,134.7095 C204.448505,133.074492 205.447662,131.89367 206.465,131.167 C206.901002,130.803665 207.391497,130.567501 207.9365,130.4585 C208.481503,130.349499 209.008331,130.222334 209.517,130.077 C210.025669,129.931666 210.316333,129.568336 210.389,128.987 C210.461667,128.405664 210.207336,128.078667 209.626,128.006 C209.480666,127.424664 209.244502,126.861503 208.9175,126.3165 C208.590498,125.771497 208.172669,125.390001 207.664,125.172 C206.355993,124.517997 205.193338,124.136501 204.176,124.0275 C203.158662,123.918499 202.250337,124.045665 201.451,124.409 C200.651663,124.772335 199.852337,125.353663 199.053,126.153 C198.253663,126.952337 197.418004,127.933328 196.546,129.096 C196.473333,129.168667 196.418834,129.241333 196.3825,129.314 C196.346166,129.386667 196.291667,129.459333 196.219,129.532 C196.219,128.732663 196.037335,127.96967 195.674,127.243 C195.455999,126.734331 195.020003,126.11667 194.366,125.39 C193.711997,124.66333 192.985337,124.027503 192.186,123.4825 C191.386663,122.937497 190.569171,122.537835 189.7335,122.2835 C188.897829,122.029165 188.11667,122.047332 187.39,122.338 C187.099332,122.338 186.845001,122.410666 186.627,122.556 C185.173659,123.428004 183.629508,124.009332 181.9945,124.3 C180.359492,124.590668 178.815341,125.244662 177.362,126.262 C176.562663,126.843336 175.945002,127.479163 175.509,128.1695 C175.072998,128.859837 174.673335,129.604663 174.31,130.404 C173.292662,131.203337 172.384337,132.111662 171.585,133.129 C170.785663,134.146338 170.095336,135.308993 169.514,136.617 C167.842658,140.831688 167.224998,144.446818 167.661,147.4625 C167.938257,149.380195 168.729741,151.290525 170.035464,153.193513 Z M65.419,85.496 C61.2769793,90.6553591 57.6255158,96.3596354 54.4645,102.609 C51.3034842,108.858365 48.3786801,115.65263 45.69,122.992 C46.5620044,122.483331 47.2704973,122.083668 47.8155,121.793 C48.3605027,121.502332 48.8328313,121.229835 49.2325,120.9755 C49.6321687,120.721165 50.0499978,120.448668 50.486,120.158 C50.9220022,119.867332 51.5033297,119.431336 52.23,118.85 C53.9740087,117.541993 55.7724907,116.088675 57.6255,114.49 C59.4785093,112.891325 61.3133243,111.238175 63.13,109.5305 C64.9466758,107.822825 66.7088248,106.115175 68.4165,104.4075 C70.1241752,102.699825 71.7046594,101.046675 73.158,99.448 C74.1026714,98.3579946 75.5196572,96.6321785 77.409,94.2705 C79.2983428,91.9088215 81.0786583,89.3291807 82.75,86.5315 C84.4213417,83.7338193 85.7293286,80.9906801 86.674,78.302 C87.6186714,75.6133199 87.6913373,73.4333417 86.892,71.762 C86.892,70.3813264 86.0381752,69.9816638 84.3305,70.563 C82.6228248,71.1443362 80.5881785,72.2524918 78.2265,73.8875 C75.8648215,75.5225082 73.485012,77.4299891 71.087,79.61 C68.688988,81.7900109 66.7996736,83.7519913 65.419,85.496 Z M141.392,104.789 C140.955998,106.02434 140.520002,107.223328 140.084,108.386 C139.647998,109.548672 139.248335,110.74766 138.885,111.983 C140.483675,110.674993 141.973326,109.330674 143.354,107.95 C144.734674,106.569326 146.060827,105.097841 147.3325,103.5355 C148.604173,101.973159 149.839494,100.229176 151.0385,98.3035 C152.237506,96.3778237 153.45466,94.179679 154.69,91.709 C155.053335,90.9823297 155.507497,90.0376725 156.0525,88.875 C156.597503,87.7123275 157.051665,86.5860055 157.415,85.496 C157.778335,84.4059946 157.941834,83.4795038 157.9055,82.7165 C157.869166,81.9534962 157.415004,81.608333 156.543,81.681 C155.452995,81.681 154.363005,82.1351621 153.273,83.0435 C152.182995,83.9518379 151.129338,85.1144929 150.112,86.5315 C149.094662,87.9485071 148.131838,89.5289913 147.2235,91.273 C146.315162,93.0170087 145.49767,94.7428248 144.771,96.4505 C144.04433,98.1581752 143.390336,99.7568259 142.809,101.2465 C142.227664,102.736174 141.755335,103.916996 141.392,104.789 Z M186.3,151.986 C187.02667,148.497983 188.098493,145.010017 189.5155,141.522 C190.932507,138.033983 192.62199,134.764015 194.584,131.712 C194.584,131.639333 194.565834,131.584834 194.5295,131.5485 C194.493166,131.512166 194.475,131.421334 194.475,131.276 C194.402333,130.185995 194.238835,129.241337 193.9845,128.442 C193.730165,127.642663 192.731009,126.661672 190.987,125.499 C190.623665,125.135665 190.13317,124.808668 189.5155,124.518 C188.89783,124.227332 188.298336,124.154666 187.717,124.3 C187.280998,124.445334 186.917668,124.590666 186.627,124.736 C186.699667,124.736 186.736,124.754166 186.736,124.7905 C186.736,124.826834 186.772333,124.845 186.845,124.845 C187.063001,124.917667 187.244666,125.135665 187.39,125.499 C187.39,126.371004 187.135669,127.188496 186.627,127.9515 C186.118331,128.714504 185.50067,129.422997 184.774,130.077 C184.04733,130.731003 183.302504,131.36683 182.5395,131.9845 C181.776496,132.60217 181.177002,133.237997 180.741,133.892 C179.287659,135.85401 178.070505,138.052154 177.0895,140.4865 C176.108495,142.920846 175.436335,145.336988 175.073,147.735 C175.073,148.025668 175.036667,148.497997 174.964,149.152 C174.891333,149.806003 174.855,150.49633 174.855,151.223 C174.855,151.94967 174.891333,152.62183 174.964,153.2395 C175.036667,153.85717 175.254665,154.238666 175.618,154.384 C176.054002,154.674668 176.199334,155.074331 176.054,155.583 C177.071338,155.801001 178.161328,155.819168 179.324,155.6375 C180.486672,155.455832 181.758326,154.965337 183.139,154.166 C184.156338,153.511997 185.209995,152.785337 186.3,151.986 L186.3,151.986 L186.3,151.986 Z" id="La-Copy" fill="#221F1F"></path>
            <polygon id="È-Copy-2" fill="#221F1F" points="770.960426 63.8934553 743 47.8797565 744.270928 40"></polygon>
        </g>
    </g>
</svg>